<svg xmlns="http://www.w3.org/2000/svg" width="511" height="598" overflow="hidden"><defs><clipPath id="a"><path d="M-4500-84h511v598h-511z"/></clipPath></defs><g fill-rule="evenodd" clip-path="url(#a)" transform="translate(4500 84)"><path fill="#1156A6" d="M-4238.44-83C-4370.17-83-4500-31.876-4500-31.876l19.19 411.572S-4303.74 513-4238.32 513c65.42 0 229.13-133.304 229.13-133.304L-3990-31.876c-.11-.112-116.7-51.124-248.44-51.124Z"/><path fill="#FFF" d="M-4246.74-44.346c99.14 0 195.47 33.084 221.74 42.84l-16.73 360.338c-45.7 34.878-160.66 115.626-205.01 115.626-44.24 0-156.84-80.636-201.42-115.514l-16.73-360.45c25.6-9.868 119.13-42.84 218.15-42.84m0-10.654C-4366.09-55-4476-8.682-4476-8.682l17.29 372.897S-4306.02 485-4246.74 485s215.45-120.785 215.45-120.785L-4014-8.682c.11 0-113.4-46.318-232.74-46.318Z"/><path fill="#FFF" d="M-4322.79-30.17s50.71-9.328 69.79-6.182L-4447.9 190s-7.63-65.972-7.07-69.569l132.18-150.6ZM-4163.46 1.818c63.32 14.875 102.6 78.264 87.72 141.584-14.87 63.32-78.26 102.591-141.58 87.716-63.32-14.876-102.59-78.265-87.72-141.584 14.88-63.32 78.27-102.592 141.58-87.716Z"/><path fill="#DE2526" d="M-4129 111c0 32.073-26.15 58-58.5 58s-58.5-25.927-58.5-58 26.15-58 58.5-58c32.24 0 58.5 25.927 58.5 58Z"/><path fill="#FFF" d="m-4414 367.054 63.26 48.946 81.13-102.383 119.33 91.719L-4046 268.263-4111.06 221l-78.99 102.383-123.27-89.136Z"/></g></svg>